<svg width="91" height="50" viewBox="0 0 91 50" fill="none" xmlns="http://www.w3.org/2000/svg">
<path d="M36.8151 37.3218H44.1031V38.73H43.7982C43.7982 38.2073 43.7014 37.9025 43.5078 37.8154H41.1269V45.2194C41.214 45.413 41.5189 45.5098 42.0415 45.5098V45.8147H38.8766V45.5098C39.3993 45.5098 39.7042 45.413 39.7913 45.2194V37.8154H37.4104C37.2168 37.9025 37.12 38.2073 37.12 38.73H36.8151V37.3218ZM44.9754 45.8147V45.5098C45.498 45.5098 45.8029 45.413 45.89 45.2194V37.917C45.8029 37.7234 45.498 37.6266 44.9754 37.6266V37.3218H48.2564C49.4565 37.3218 50.3663 37.5395 50.9857 37.9751C51.6052 38.4106 51.9149 38.909 51.9149 39.4704C51.9149 40.0027 51.7552 40.4721 51.4358 40.8786C51.1164 41.2754 50.6421 41.5658 50.013 41.7497L51.9439 45.2049C52.0407 45.4082 52.3601 45.5098 52.9021 45.5098V45.8147H52.2778C51.6003 45.8147 51.1599 45.776 50.9567 45.6985C50.7535 45.6211 50.5502 45.4082 50.347 45.0597L48.5903 41.9529H47.2256V45.2194C47.3127 45.413 47.6176 45.5098 48.1402 45.5098V45.8147H44.9754ZM47.2256 37.8154V41.4593H48.4306C49.2049 41.4593 49.7372 41.3093 50.0276 41.0093C50.3179 40.7092 50.4631 40.2011 50.4631 39.4849C50.4631 38.9526 50.2986 38.5413 49.9695 38.2509C49.6501 37.9605 49.0791 37.8154 48.2564 37.8154H47.2256ZM57.6792 45.8147V45.5098C58.1244 45.5098 58.4051 45.4517 58.5213 45.3356L57.7083 43.1144H54.9209L54.1659 45.2485C54.2627 45.4227 54.5627 45.5098 55.066 45.5098V45.8147H52.6851V45.5098C53.2271 45.5098 53.532 45.4082 53.5997 45.2049L56.4162 37.3218H57.113L59.9295 45.2049C59.9972 45.4082 60.307 45.5098 60.8586 45.5098V45.8147H57.6792ZM56.3 39.2526L55.0951 42.6353H57.5341L56.3 39.2526ZM61.3362 45.8147V45.5098C61.8589 45.5098 62.1638 45.413 62.2509 45.2194V37.917C62.1638 37.7234 61.8589 37.6266 61.3362 37.6266V37.3218H64.5011V37.6266C63.9785 37.6266 63.6736 37.7234 63.5865 37.917V45.2194C63.6736 45.413 63.9785 45.5098 64.5011 45.5098V45.8147H61.3362ZM65.7171 45.8147V45.5098C66.2397 45.5098 66.5446 45.413 66.6317 45.2194V37.917C66.5446 37.7234 66.2397 37.6266 65.7171 37.6266V37.3218H67.6625L72.4679 43.2595V37.917C72.3808 37.7234 72.0759 37.6266 71.5533 37.6266V37.3218H73.8761V37.6266C73.3535 37.6266 73.0486 37.7234 72.9615 37.917V45.8147H72.8308L67.1253 38.5993V45.2194C67.2124 45.413 67.5173 45.5098 68.0399 45.5098V45.8147H65.7171ZM74.9609 45.8147V45.5098C75.4835 45.5098 75.7884 45.413 75.8755 45.2194V37.917C75.7884 37.7234 75.4835 37.6266 74.9609 37.6266V37.3218H80.8115V38.73H80.5066C80.5066 38.2073 80.4099 37.9025 80.2163 37.8154H77.2111V41.1545H79.2436C79.4372 41.0673 79.534 40.7625 79.534 40.2398H79.8388V42.5627H79.534C79.534 42.04 79.4372 41.7352 79.2436 41.6481H77.2111V45.3211H80.5212C80.7631 45.2146 80.9809 44.9097 81.1745 44.4064H81.4648L81.1164 45.8147H74.9609ZM82.319 45.8147V45.5098C82.8416 45.5098 83.1465 45.413 83.2336 45.2194V37.917C83.1465 37.7234 82.8416 37.6266 82.319 37.6266V37.3218H85.6C86.8001 37.3218 87.7099 37.5395 88.3294 37.9751C88.9488 38.4106 89.2585 38.909 89.2585 39.4704C89.2585 40.0027 89.0988 40.4721 88.7794 40.8786C88.46 41.2754 87.9858 41.5658 87.3567 41.7497L89.2875 45.2049C89.3843 45.4082 89.7037 45.5098 90.2457 45.5098V45.8147H89.6214C88.9439 45.8147 88.5036 45.776 88.3003 45.6985C88.0971 45.6211 87.8938 45.4082 87.6906 45.0597L85.9339 41.9529H84.5692V45.2194C84.6564 45.413 84.9612 45.5098 85.4839 45.5098V45.8147H82.319ZM84.5692 37.8154V41.4593H85.7742C86.5485 41.4593 87.0808 41.3093 87.3712 41.0093C87.6615 40.7092 87.8067 40.2011 87.8067 39.4849C87.8067 38.9526 87.6422 38.5413 87.3131 38.2509C86.9937 37.9605 86.4227 37.8154 85.6 37.8154H84.5692Z" fill="#CDE7F1"/>
<path d="M7.39158 32.735C7.39158 32.7737 7.34802 32.7979 7.26092 32.8076C7.00927 32.7786 6.8399 32.706 6.75279 32.5898C6.44308 31.8543 6.22047 31.2106 6.08497 30.659C5.78494 31.4042 5.3978 31.9801 4.92355 32.3866C4.4493 32.7931 3.92666 32.9963 3.35563 32.9963C2.50392 32.9963 1.8361 32.6189 1.35217 31.864C0.868247 31.109 0.626284 30.1121 0.626284 28.8733C0.626284 27.8086 0.902122 26.8118 1.4538 25.8826C1.75383 25.3697 2.12646 24.9051 2.57167 24.4889C3.01688 24.0727 3.59275 23.705 4.29929 23.3856C5.00582 23.0662 5.79462 22.8387 6.66569 22.7032L6.91249 23.0807L6.4334 24.3292C6.1624 24.2905 5.87689 24.2711 5.57685 24.2711C4.89935 24.2711 4.30896 24.3921 3.80568 24.6341C3.3024 24.8664 2.9201 25.1761 2.65877 25.5632C2.16517 26.3278 1.91837 27.165 1.91837 28.0748C1.91837 29.2653 2.09258 30.175 2.44101 30.8042C2.79911 31.4236 3.22497 31.7333 3.71857 31.7333C4.71546 31.7333 5.43167 30.9735 5.86721 29.454C5.82849 29.1443 5.80914 28.7862 5.80914 28.3797C5.80914 27.9635 5.85753 27.4796 5.95431 26.9279L6.30274 26.6956L7.4932 27.2328C7.18349 27.8232 7.02863 28.641 7.02863 29.6863C7.02863 30.7316 7.14961 31.7478 7.39158 32.735ZM13.5338 22.9791C13.4855 23.492 13.4613 24.034 13.4613 24.6051C13.4613 26.9569 13.8968 29.7492 14.7679 32.9818C14.7388 33.0012 14.7001 33.0157 14.6517 33.0254C14.4001 33.0254 14.2113 32.9528 14.0855 32.8076C13.7565 32.1108 13.3984 31.0848 13.0112 29.7298C12.3531 29.8363 11.7385 29.8895 11.1674 29.8895C10.6061 29.8895 10.2141 29.8799 9.99151 29.8605C9.53662 30.809 9.02849 31.7914 8.46714 32.8076C8.29293 32.9528 8.11387 33.0254 7.92998 33.0254C7.74609 33.0254 7.65414 33.0109 7.65414 32.9818C8.02193 32.2559 8.50585 31.1768 9.10592 29.7444C8.98978 29.725 8.80589 29.6863 8.55425 29.6282C8.40907 29.4734 8.33648 29.2604 8.33648 28.9894C8.33648 28.9217 8.351 28.8878 8.38003 28.8878C8.40907 28.8878 8.46714 28.9023 8.55425 28.9314C8.7575 28.9894 9.02849 29.0378 9.36724 29.0765C10.2964 26.8021 10.94 24.9583 11.2981 23.5453L12.8951 22.7032C13.1661 22.7032 13.379 22.7952 13.5338 22.9791ZM10.3399 29.1201C11.2497 29.1007 12.0579 28.9894 12.7644 28.7862C12.3676 27.286 12.1159 26.0084 12.0095 24.9535C11.4578 26.473 10.9013 27.8619 10.3399 29.1201ZM17.9639 32.8076C17.8284 32.9431 17.6203 33.0109 17.3397 33.0109C17.2719 33.0109 17.238 32.9963 17.238 32.9673C17.451 31.6801 17.5574 30.3057 17.5574 28.8442C17.5574 27.3731 17.4994 25.9842 17.3832 24.6776C17.2187 24.6873 16.9235 24.6922 16.4976 24.6922C16.0815 24.6922 15.612 24.6486 15.0894 24.5615L14.8571 24.184L15.4088 22.9355C16.0185 23.2646 16.8751 23.4291 17.9784 23.4291C19.0915 23.4291 20.1706 23.2985 21.2159 23.0371C21.2546 23.0371 21.274 23.1194 21.274 23.2839C21.274 23.4485 21.2014 23.5936 21.0562 23.7195C20.2819 24.0485 19.5415 24.2953 18.835 24.4599C18.6608 28.4474 18.3704 31.23 17.9639 32.8076ZM25.3394 33.3738C25.3007 33.4899 25.1942 33.6158 25.02 33.7513C24.8458 33.8868 24.72 33.9545 24.6426 33.9545C22.7843 32.4447 21.8552 30.5719 21.8552 28.3361C21.8552 25.6842 23.0408 23.4872 25.412 21.745C25.4798 21.745 25.5524 21.7886 25.6298 21.8757C25.7169 21.9628 25.775 22.0693 25.804 22.1951C24.149 23.7243 23.3215 25.752 23.3215 28.2781C23.3215 30.4751 23.9941 32.1737 25.3394 33.3738ZM32.5313 23.0807L32.0522 24.3292C31.7812 24.2905 31.4957 24.2711 31.1957 24.2711C30.5182 24.2711 29.9278 24.3921 29.4245 24.6341C28.9212 24.8664 28.5389 25.1761 28.2776 25.5632C27.784 26.3278 27.5372 27.165 27.5372 28.0748C27.5372 29.2653 27.7211 30.175 28.0888 30.8042C28.4566 31.4236 28.897 31.7333 29.41 31.7333C30.0681 31.7333 30.6198 31.472 31.065 30.9493C31.5102 30.4267 31.8877 29.6234 32.1974 28.5394C32.2167 28.4619 32.2506 28.4232 32.299 28.4232C32.4345 28.4232 32.5845 28.491 32.7491 28.6265C32.5555 29.9524 32.1103 31.0122 31.4134 31.8059C30.7262 32.5995 29.952 32.9963 29.0906 32.9963C28.2389 32.9963 27.5517 32.6189 27.029 31.864C26.5064 31.109 26.2451 30.1121 26.2451 28.8733C26.2451 27.8086 26.5209 26.8118 27.0726 25.8826C27.3726 25.3697 27.7453 24.9051 28.1905 24.4889C28.6357 24.0727 29.2116 23.705 29.9181 23.3856C30.6246 23.0662 31.4134 22.8387 32.2845 22.7032L32.5313 23.0807ZM38.8216 23.2694L38.3425 24.5179C37.8682 24.2663 37.3504 24.1405 36.7891 24.1405C36.2277 24.1405 35.7728 24.2421 35.4244 24.4454C35.0857 24.6486 34.9163 24.968 34.9163 25.4035C34.9163 25.9359 35.3615 26.5408 36.2519 27.2183C36.6197 27.4989 36.9875 27.7893 37.3553 28.0893C37.7231 28.3797 38.0376 28.7184 38.2989 29.1056C38.5603 29.483 38.6909 29.8411 38.6909 30.1799C38.6909 30.5186 38.6328 30.8283 38.5167 31.109C38.4102 31.38 38.2263 31.6607 37.965 31.9511C37.7037 32.2414 37.2972 32.4785 36.7455 32.6624C36.1939 32.8463 35.5744 32.9383 34.8873 32.9383C34.2001 32.9383 33.5903 32.856 33.058 32.6915C32.9515 32.5269 32.8983 32.3818 32.8983 32.2559C32.8983 32.1301 32.9032 32.0672 32.9128 32.0672C32.9322 32.0672 33.0048 32.0866 33.1306 32.1253C33.5274 32.2317 33.9242 32.285 34.3211 32.285C35.1341 32.285 35.7922 32.1204 36.2955 31.7914C36.8084 31.4623 37.0649 31.0413 37.0649 30.5283C37.0649 29.9476 36.6487 29.3233 35.8164 28.6555C35.468 28.3748 35.1195 28.0942 34.7711 27.8135C33.9388 27.1457 33.5226 26.4924 33.5226 25.8536C33.5226 25.4471 33.692 25.0503 34.0307 24.6631C34.7759 23.8017 36.2906 23.2113 38.5748 22.892L38.8216 23.2694ZM39.7286 22.3258C39.7673 22.2096 39.8738 22.0838 40.048 21.9483C40.2222 21.8128 40.348 21.745 40.4255 21.745C42.2837 23.2549 43.2129 25.1277 43.2129 27.3634C43.2129 30.0154 42.0272 32.2124 39.656 33.9545C39.5883 33.9545 39.5108 33.911 39.4237 33.8239C39.3463 33.7367 39.2931 33.6303 39.264 33.5045C40.9191 31.9753 41.7466 29.9476 41.7466 27.4215C41.7466 25.2245 41.0739 23.5259 39.7286 22.3258Z" fill="#CDE7F1"/>
<path d="M57.2632 15.3147V15.872L55.0993 21.3338H57.2632V30.3903H69.5917V33.3999H64.9792V36.4373H75.7701V25.8481L76.9944 24.9285C80.1264 22.6156 81.9486 19.1045 81.9486 15.2868C81.9486 8.62679 76.425 3.22075 69.6201 3.22075C62.7868 3.22075 57.2632 8.6268 57.2632 15.3147Z" fill="#C2E6F4"/>
<path d="M69.5917 28.579H57.2632V30.3903H69.5917V28.579Z" fill="#2F9BA6"/>
<path d="M75.7701 36.4373V25.8481L76.9944 24.9285C80.1264 22.6156 81.9201 19.1045 81.9201 15.2868C81.9201 8.62679 76.3965 3.22075 69.5917 3.22075C64.4667 3.22075 60.082 6.28603 58.2028 10.6332C60.7938 7.23348 64.9222 5.03205 69.5917 5.03205C75.3715 5.03205 80.0694 9.62998 80.0694 15.2868C80.0694 18.5193 78.5319 21.5289 75.8555 23.4795L73.891 24.9285V36.4373H75.7701Z" fill="#2F9BA6"/>
<path d="M57.2632 15.3147V15.872L55.0993 21.3338H57.2632V30.3903H69.5917V33.3999H64.9792V36.4373H61.8757V33.4277H57.2632C55.5549 33.4277 54.1882 32.0623 54.1882 30.4182V24.3712H52.2236C51.3695 24.3712 50.9139 23.7303 51.1702 22.95L54.1882 15.3147C54.1597 6.95482 61.0785 0.211197 69.5917 0.211197C78.1048 0.211197 85.0236 6.95482 85.0236 15.3147C85.0236 20.247 82.6035 24.622 78.8451 27.3808V36.4373H75.7701V25.8481L76.9944 24.9285C80.1264 22.6156 81.9201 19.1045 81.9201 15.2868C81.9201 8.62679 76.3965 3.22075 69.5917 3.22075C62.7868 3.22075 57.2632 8.62679 57.2632 15.3147Z" fill="#CDE7F1"/>
<path d="M75.8555 8.62679L68.5097 14.2279C67.9118 14.8131 67.9118 15.7605 68.5097 16.3736C69.1076 16.9588 70.0757 16.9588 70.7021 16.3736L76.425 9.15624L75.8555 8.62679Z" fill="#263238"/>
<path d="M69.5917 9.26771C69.7055 9.26771 69.8479 9.29558 69.9618 9.29558L73.0937 6.92695C72.0118 6.48109 70.8444 6.25816 69.5917 6.25816C64.4667 6.25816 60.3382 10.2988 60.3382 15.3147C60.3382 17.8226 61.3632 20.0798 63.0431 21.7239L65.2354 19.5782C64.125 18.4914 63.4417 16.9867 63.4417 15.3147C63.4132 11.9707 66.175 9.26771 69.5917 9.26771Z" fill="#0A3859"/>
<path d="M75.7132 14.9524C75.7132 15.0639 75.7417 15.1754 75.7417 15.3147C75.7417 16.9867 75.0583 18.4914 73.9479 19.5782L76.1403 21.7239C77.8201 20.0798 78.8451 17.8226 78.8451 15.3147C78.8451 14.1164 78.5889 12.9461 78.1618 11.8871L75.7132 14.9524Z" fill="#2F9BA6"/>
</svg>
