<svg width="152" height="83" viewBox="0 0 152 83" fill="none" xmlns="http://www.w3.org/2000/svg">
<path d="M61.4084 62.4793H73.6349V64.8418H73.1235C73.1235 63.965 72.9611 63.4535 72.6363 63.3074H68.642V75.7288C68.7882 76.0535 69.2996 76.2159 70.1764 76.2159V76.7274H64.8669V76.2159C65.7437 76.2159 66.2552 76.0535 66.4013 75.7288V63.3074H62.407C62.0822 63.4535 61.9199 63.965 61.9199 64.8418H61.4084V62.4793ZM75.0983 76.7274V76.2159C75.9752 76.2159 76.4866 76.0535 76.6328 75.7288V63.4779C76.4866 63.1532 75.9752 62.9908 75.0983 62.9908V62.4793H80.6027C82.6161 62.4793 84.1424 62.8447 85.1816 63.5753C86.2207 64.306 86.7403 65.1422 86.7403 66.084C86.7403 66.977 86.4724 67.7645 85.9366 68.4464C85.4008 69.1122 84.6052 69.5993 83.5497 69.9078L86.789 75.7044C86.9514 76.0454 87.4872 76.2159 88.3965 76.2159V76.7274H87.3492C86.2126 76.7274 85.4738 76.6624 85.1329 76.5325C84.7919 76.4026 84.4509 76.0454 84.1099 75.4609L81.1629 70.2488H78.8735V75.7288C79.0196 76.0535 79.5311 76.2159 80.4079 76.2159V76.7274H75.0983ZM78.8735 63.3074V69.4207H80.895C82.194 69.4207 83.087 69.169 83.5741 68.6656C84.0612 68.1623 84.3048 67.3099 84.3048 66.1083C84.3048 65.2153 84.0287 64.5252 83.4767 64.0381C82.9409 63.551 81.9829 63.3074 80.6027 63.3074H78.8735ZM96.4108 76.7274V76.2159C97.1577 76.2159 97.6286 76.1185 97.8235 75.9236L96.4596 72.1972H91.7833L90.5168 75.7775C90.6792 76.0698 91.1825 76.2159 92.0268 76.2159V76.7274H88.0325V76.2159C88.9418 76.2159 89.4533 76.0454 89.5669 75.7044L94.2919 62.4793H95.461L100.186 75.7044C100.3 76.0454 100.819 76.2159 101.745 76.2159V76.7274H96.4108ZM94.0971 65.7186L92.0755 71.3935H96.1673L94.0971 65.7186ZM102.546 76.7274V76.2159C103.423 76.2159 103.934 76.0535 104.08 75.7288V63.4779C103.934 63.1532 103.423 62.9908 102.546 62.9908V62.4793H107.856V62.9908C106.979 62.9908 106.467 63.1532 106.321 63.4779V75.7288C106.467 76.0535 106.979 76.2159 107.856 76.2159V76.7274H102.546ZM109.895 76.7274V76.2159C110.772 76.2159 111.284 76.0535 111.43 75.7288V63.4779C111.284 63.1532 110.772 62.9908 109.895 62.9908V62.4793H113.159L121.221 72.4408V63.4779C121.075 63.1532 120.563 62.9908 119.686 62.9908V62.4793H123.583V62.9908C122.707 62.9908 122.195 63.1532 122.049 63.4779V76.7274H121.83L112.258 64.6226V75.7288C112.404 76.0535 112.916 76.2159 113.792 76.2159V76.7274H109.895ZM125.403 76.7274V76.2159C126.28 76.2159 126.791 76.0535 126.938 75.7288V63.4779C126.791 63.1532 126.28 62.9908 125.403 62.9908V62.4793H135.218V64.8418H134.707C134.707 63.965 134.545 63.4535 134.22 63.3074H129.178V68.9092H132.588C132.913 68.7631 133.075 68.2516 133.075 67.3748H133.587V71.2717H133.075C133.075 70.3949 132.913 69.8834 132.588 69.7373H129.178V75.8993H134.731C135.137 75.7207 135.503 75.2092 135.827 74.3649H136.314L135.73 76.7274H125.403ZM137.747 76.7274V76.2159C138.624 76.2159 139.136 76.0535 139.282 75.7288V63.4779C139.136 63.1532 138.624 62.9908 137.747 62.9908V62.4793H143.252C145.265 62.4793 146.792 62.8447 147.831 63.5753C148.87 64.306 149.389 65.1422 149.389 66.084C149.389 66.977 149.122 67.7645 148.586 68.4464C148.05 69.1122 147.254 69.5993 146.199 69.9078L149.438 75.7044C149.601 76.0454 150.136 76.2159 151.046 76.2159V76.7274H149.998C148.862 76.7274 148.123 76.6624 147.782 76.5325C147.441 76.4026 147.1 76.0454 146.759 75.4609L143.812 70.2488H141.523V75.7288C141.669 76.0535 142.18 76.2159 143.057 76.2159V76.7274H137.747ZM141.523 63.3074V69.4207H143.544C144.843 69.4207 145.736 69.169 146.223 68.6656C146.71 68.1623 146.954 67.3099 146.954 66.1083C146.954 65.2153 146.678 64.5252 146.126 64.0381C145.59 63.551 144.632 63.3074 143.252 63.3074H141.523Z" fill="#CDE7F1"/>
<path d="M12.0804 54.772C12.0804 54.8369 12.0073 54.8775 11.8612 54.8938C11.439 54.8451 11.1549 54.7233 11.0087 54.5284C10.4892 53.2944 10.1157 52.2147 9.88838 51.2891C9.38503 52.5394 8.73555 53.5055 7.93993 54.1875C7.14431 54.8694 6.26751 55.2104 5.30952 55.2104C3.88066 55.2104 2.7603 54.5772 1.94845 53.3107C1.1366 52.0442 0.730668 50.3718 0.730668 48.2934C0.730668 46.5073 1.19343 44.8349 2.11894 43.2761C2.62229 42.4156 3.24742 41.6362 3.99432 40.938C4.74123 40.2398 5.70733 39.6228 6.89264 39.087C8.07794 38.5512 9.40127 38.1696 10.8626 37.9423L11.2766 38.5755L10.4729 40.6701C10.0183 40.6051 9.53928 40.5727 9.03593 40.5727C7.89934 40.5727 6.90888 40.7756 6.06455 41.1816C5.22022 41.5713 4.57886 42.0908 4.14045 42.7403C3.31236 44.0231 2.89832 45.4276 2.89832 46.9538C2.89832 48.951 3.19059 50.4773 3.77512 51.5327C4.37589 52.5719 5.09032 53.0915 5.91841 53.0915C7.59083 53.0915 8.79238 51.8168 9.52305 49.2676C9.4581 48.748 9.42562 48.1473 9.42562 47.4653C9.42562 46.7671 9.50681 45.9553 9.66918 45.0298L10.2537 44.6401L12.2509 45.5412C11.7313 46.5317 11.4715 47.9037 11.4715 49.6573C11.4715 51.4109 11.6745 53.1158 12.0804 54.772ZM22.3849 38.405C22.3037 39.2656 22.2631 40.1749 22.2631 41.1329C22.2631 45.0785 22.9938 49.7629 24.4551 55.186C24.4064 55.2185 24.3415 55.2429 24.2603 55.2591C23.8381 55.2591 23.5215 55.1373 23.3104 54.8938C22.7584 53.7247 22.1576 52.0036 21.5081 49.7304C20.404 49.909 19.3729 49.9983 18.4149 49.9983C17.4732 49.9983 16.8156 49.9821 16.4421 49.9496C15.679 51.5408 14.8265 53.1889 13.8848 54.8938C13.5925 55.1373 13.2921 55.2591 12.9836 55.2591C12.6751 55.2591 12.5209 55.2348 12.5209 55.186C13.1379 53.9683 13.9497 52.1578 14.9564 49.7547C14.7616 49.7223 14.4531 49.6573 14.0309 49.5599C13.7874 49.3001 13.6656 48.9429 13.6656 48.4882C13.6656 48.3746 13.6899 48.3178 13.7387 48.3178C13.7874 48.3178 13.8848 48.3421 14.0309 48.3908C14.3719 48.4882 14.8265 48.5694 15.3948 48.6344C16.9536 44.8187 18.0334 41.7255 18.6341 39.3549L21.3133 37.9423C21.7679 37.9423 22.1251 38.0965 22.3849 38.405ZM17.0267 48.7074C18.553 48.675 19.9087 48.4882 21.0941 48.1473C20.4283 45.6305 20.0062 43.4872 19.8276 41.7174C18.902 44.2666 17.9684 46.5966 17.0267 48.7074ZM29.817 54.8938C29.5897 55.1211 29.2406 55.2348 28.7697 55.2348C28.656 55.2348 28.5992 55.2104 28.5992 55.1617C28.9564 53.0022 29.135 50.6965 29.135 48.2447C29.135 45.7767 29.0376 43.4466 28.8428 41.2546C28.5667 41.2709 28.0715 41.279 27.3571 41.279C26.6589 41.279 25.8714 41.2059 24.9946 41.0598L24.6049 40.4265L25.5304 38.332C26.5533 38.884 27.9903 39.16 29.8413 39.16C31.7086 39.16 33.519 38.9408 35.2726 38.5024C35.3376 38.5024 35.3701 38.6405 35.3701 38.9165C35.3701 39.1925 35.2483 39.4361 35.0047 39.6472C33.7058 40.1992 32.4636 40.6133 31.2783 40.8893C30.986 47.579 30.4989 52.2471 29.817 54.8938ZM42.1904 55.8436C42.1254 56.0385 41.9468 56.2496 41.6546 56.4769C41.3623 56.7042 41.1512 56.8179 41.0213 56.8179C37.9038 54.2849 36.345 51.143 36.345 47.3922C36.345 42.9433 38.3341 39.2575 42.3122 36.3348C42.4258 36.3348 42.5476 36.4079 42.6775 36.554C42.8236 36.7001 42.9211 36.8787 42.9698 37.0898C40.1932 39.6553 38.805 43.0569 38.805 47.2948C38.805 50.9806 39.9334 53.8302 42.1904 55.8436ZM54.2557 38.5755L53.452 40.6701C52.9974 40.6051 52.5184 40.5727 52.015 40.5727C50.8784 40.5727 49.888 40.7756 49.0436 41.1816C48.1993 41.5713 47.5579 42.0908 47.1195 42.7403C46.2915 44.0231 45.8774 45.4276 45.8774 46.9538C45.8774 48.951 46.1859 50.4773 46.8029 51.5327C47.4199 52.5719 48.1587 53.0915 49.0193 53.0915C50.1234 53.0915 51.0489 52.6531 51.7958 51.7763C52.5427 50.8995 53.176 49.5518 53.6956 47.7332C53.728 47.6033 53.7849 47.5384 53.8661 47.5384C54.0934 47.5384 54.345 47.652 54.6211 47.8794C54.2963 50.1038 53.5494 51.8818 52.3804 53.2132C51.2275 54.5447 49.9286 55.2104 48.4835 55.2104C47.0546 55.2104 45.9018 54.5772 45.025 53.3107C44.1482 52.0442 43.7098 50.3718 43.7098 48.2934C43.7098 46.5073 44.1725 44.8349 45.098 43.2761C45.6014 42.4156 46.2265 41.6362 46.9734 40.938C47.7203 40.2398 48.6864 39.6228 49.8717 39.087C51.057 38.5512 52.3804 38.1696 53.8417 37.9423L54.2557 38.5755ZM64.8086 38.8921L64.0048 40.9867C63.2092 40.5646 62.3405 40.3535 61.3988 40.3535C60.457 40.3535 59.6939 40.524 59.1094 40.8649C58.5411 41.2059 58.2569 41.7417 58.2569 42.4724C58.2569 43.3655 59.0038 44.3803 60.4976 45.5169C61.1146 45.9877 61.7316 46.4749 62.3487 46.9782C62.9657 47.4653 63.4934 48.0336 63.9318 48.6831C64.3702 49.3163 64.5894 49.9171 64.5894 50.4854C64.5894 51.0537 64.492 51.5733 64.2971 52.0442C64.1185 52.4988 63.81 52.9697 63.3716 53.4568C62.9332 53.9439 62.2512 54.3417 61.3257 54.6502C60.4002 54.9587 59.361 55.113 58.2082 55.113C57.0554 55.113 56.0324 54.975 55.1394 54.6989C54.9608 54.4229 54.8715 54.1793 54.8715 53.9683C54.8715 53.7572 54.8796 53.6516 54.8958 53.6516C54.9283 53.6516 55.0501 53.6841 55.2612 53.7491C55.9269 53.9277 56.5926 54.017 57.2583 54.017C58.6222 54.017 59.7264 53.7409 60.5707 53.1889C61.4313 52.6368 61.8615 51.9305 61.8615 51.0699C61.8615 50.0957 61.1633 49.0484 59.767 47.9281C59.1824 47.4572 58.5979 46.9863 58.0134 46.5154C56.617 45.3951 55.9188 44.2991 55.9188 43.2274C55.9188 42.5455 56.2029 41.8798 56.7712 41.2303C58.0215 39.7852 60.5626 38.7947 64.3945 38.2589L64.8086 38.8921ZM66.3302 37.309C66.3952 37.1142 66.5738 36.9031 66.8661 36.6758C67.1583 36.4485 67.3694 36.3348 67.4993 36.3348C70.6168 38.8678 72.1756 42.0097 72.1756 45.7604C72.1756 50.2094 70.1865 53.8952 66.2085 56.8179C66.0948 56.8179 65.9649 56.7448 65.8188 56.5987C65.6889 56.4525 65.5996 56.2739 65.5508 56.0628C68.3274 53.4974 69.7157 50.0957 69.7157 45.8578C69.7157 42.172 68.5872 39.3224 66.3302 37.309Z" fill="#CDE7F1"/>
<path d="M95.6935 25.3523V26.2878L92.0653 35.4558H95.6935V50.6579H116.365V55.7096H108.631V60.8082H126.724V43.0335L128.777 41.4899C134.028 37.6075 137.084 31.7138 137.084 25.3056C137.084 14.1262 127.822 5.05176 116.412 5.05176C104.955 5.05176 95.6935 14.1262 95.6935 25.3523Z" fill="#C2E6F4"/>
<path d="M116.365 47.6175H95.6935V50.6579H116.365V47.6175Z" fill="#2F9BA6"/>
<path d="M126.724 60.8082V43.0335L128.777 41.4899C134.028 37.6075 137.036 31.7138 137.036 25.3056C137.036 14.1262 127.774 5.05176 116.365 5.05176C107.772 5.05176 100.42 10.1971 97.2689 17.494C101.613 11.7874 108.535 8.09217 116.365 8.09217C126.056 8.09217 133.933 15.8101 133.933 25.3056C133.933 30.7315 131.355 35.7833 126.867 39.0576L123.573 41.4899V60.8082H126.724Z" fill="#2F9BA6"/>
<path d="M95.6935 25.3523V26.2878L92.0653 35.4558H95.6935V50.6579H116.365V55.7096H108.631V60.8082H103.427V55.7564H95.6935C92.8291 55.7564 90.5376 53.4644 90.5376 50.7047V40.5544H87.2436C85.8114 40.5544 85.0476 39.4785 85.4773 38.1688L90.5376 25.3523C90.4899 11.3197 102.091 -1.90735e-06 116.365 -1.90735e-06C130.639 -1.90735e-06 142.239 11.3197 142.239 25.3523C142.239 33.6316 138.182 40.9754 131.88 45.6061V60.8082H126.724V43.0335L128.777 41.4899C134.028 37.6075 137.036 31.7138 137.036 25.3056C137.036 14.1262 127.774 5.05175 116.365 5.05175C104.955 5.05175 95.6935 14.1262 95.6935 25.3523Z" fill="#CDE7F1"/>
<path d="M126.867 14.1262L114.551 23.5281C113.548 24.5104 113.548 26.1007 114.551 27.1298C115.553 28.1121 117.176 28.1121 118.227 27.1298L127.822 15.0149L126.867 14.1262Z" fill="#263238"/>
<path d="M116.365 15.202C116.556 15.202 116.794 15.2488 116.985 15.2488L122.237 11.2729C120.422 10.5245 118.465 10.1503 116.365 10.1503C107.772 10.1503 100.849 16.9327 100.849 25.3523C100.849 29.5621 102.568 33.3509 105.385 36.1107L109.061 32.509C107.199 30.6847 106.053 28.1588 106.053 25.3523C106.005 19.7393 110.636 15.202 116.365 15.202Z" fill="#0A3859"/>
<path d="M126.629 24.7442C126.629 24.9314 126.676 25.1185 126.676 25.3523C126.676 28.1589 125.531 30.6847 123.669 32.509L127.345 36.1107C130.161 33.3509 131.88 29.5621 131.88 25.3523C131.88 23.341 131.45 21.3764 130.734 19.5989L126.629 24.7442Z" fill="#2F9BA6"/>
</svg>
