<svg width="151" height="83" viewBox="0 0 151 83" fill="none" xmlns="http://www.w3.org/2000/svg">
<path d="M61.0569 62.3732H73.2295V64.7253H72.7203C72.7203 63.8524 72.5586 63.3431 72.2353 63.1977H68.2586V75.5642C68.4041 75.8875 68.9133 76.0492 69.7862 76.0492V76.5584H64.5001V76.0492C65.3731 76.0492 65.8823 75.8875 66.0278 75.5642V63.1977H62.0511C61.7278 63.3431 61.5661 63.8524 61.5661 64.7253H61.0569V62.3732ZM74.6865 76.5584V76.0492C75.5594 76.0492 76.0686 75.8875 76.2141 75.5642V63.3674C76.0686 63.0441 75.5594 62.8824 74.6865 62.8824V62.3732H80.1666C82.1711 62.3732 83.6906 62.7369 84.7252 63.4644C85.7598 64.1918 86.2771 65.0243 86.2771 65.9619C86.2771 66.851 86.0104 67.6351 85.4769 68.314C84.9434 68.9768 84.1513 69.4618 83.1006 69.7689L86.3256 75.54C86.4872 75.8794 87.0207 76.0492 87.926 76.0492V76.5584H86.8833C85.7517 76.5584 85.0162 76.4937 84.6767 76.3644C84.3372 76.2351 83.9978 75.8794 83.6583 75.2975L80.7243 70.1084H78.4449V75.5642C78.5904 75.8875 79.0996 76.0492 79.9726 76.0492V76.5584H74.6865ZM78.4449 63.1977V69.2839H80.4575C81.7508 69.2839 82.6399 69.0334 83.1248 68.5322C83.6098 68.0311 83.8523 67.1824 83.8523 65.9862C83.8523 65.0971 83.5775 64.4101 83.0278 63.9251C82.4944 63.4401 81.5406 63.1977 80.1666 63.1977H78.4449ZM95.9049 76.5584V76.0492C96.6486 76.0492 97.1174 75.9522 97.3113 75.7582L95.9534 72.0482H91.2978L90.0369 75.6127C90.1985 75.9037 90.6997 76.0492 91.5403 76.0492V76.5584H87.5636V76.0492C88.4688 76.0492 88.978 75.8794 89.0912 75.54L93.7954 62.3732H94.9593L99.6634 75.54C99.7766 75.8794 100.294 76.0492 101.215 76.0492V76.5584H95.9049ZM93.6014 65.5982L91.5888 71.248H95.6625L93.6014 65.5982ZM102.013 76.5584V76.0492C102.886 76.0492 103.395 75.8875 103.541 75.5642V63.3674C103.395 63.0441 102.886 62.8824 102.013 62.8824V62.3732H107.299V62.8824C106.426 62.8824 105.917 63.0441 105.771 63.3674V75.5642C105.917 75.8875 106.426 76.0492 107.299 76.0492V76.5584H102.013ZM109.33 76.5584V76.0492C110.203 76.0492 110.712 75.8875 110.858 75.5642V63.3674C110.712 63.0441 110.203 62.8824 109.33 62.8824V62.3732H112.579L120.605 72.2907V63.3674C120.46 63.0441 119.951 62.8824 119.078 62.8824V62.3732H122.958V62.8824C122.085 62.8824 121.575 63.0441 121.43 63.3674V76.5584H121.212L111.682 64.5071V75.5642C111.828 75.8875 112.337 76.0492 113.21 76.0492V76.5584H109.33ZM124.769 76.5584V76.0492C125.642 76.0492 126.152 75.8875 126.297 75.5642V63.3674C126.152 63.0441 125.642 62.8824 124.769 62.8824V62.3732H134.541V64.7253H134.032C134.032 63.8524 133.871 63.3431 133.547 63.1977H128.528V68.7747H131.923C132.246 68.6292 132.408 68.12 132.408 67.2471H132.917V71.1268H132.408C132.408 70.2539 132.246 69.7447 131.923 69.5992H128.528V75.734H134.056C134.461 75.5561 134.824 75.0469 135.148 74.2063H135.633L135.051 76.5584H124.769ZM137.059 76.5584V76.0492C137.932 76.0492 138.441 75.8875 138.587 75.5642V63.3674C138.441 63.0441 137.932 62.8824 137.059 62.8824V62.3732H142.539C144.544 62.3732 146.063 62.7369 147.098 63.4644C148.133 64.1918 148.65 65.0243 148.65 65.9619C148.65 66.851 148.383 67.6351 147.85 68.314C147.316 68.9768 146.524 69.4618 145.473 69.7689L148.698 75.54C148.86 75.8794 149.393 76.0492 150.299 76.0492V76.5584H149.256C148.124 76.5584 147.389 76.4937 147.049 76.3644C146.71 76.2351 146.371 75.8794 146.031 75.2975L143.097 70.1084H140.818V75.5642C140.963 75.8875 141.472 76.0492 142.345 76.0492V76.5584H137.059ZM140.818 63.1977V69.2839H142.83C144.124 69.2839 145.013 69.0334 145.498 68.5322C145.983 68.0311 146.225 67.1824 146.225 65.9862C146.225 65.0971 145.95 64.4101 145.401 63.9251C144.867 63.4401 143.913 63.1977 142.539 63.1977H140.818Z" fill="#0A3859"/>
<path d="M12.0271 54.6704C12.0271 54.735 11.9544 54.7755 11.8089 54.7916C11.3886 54.7431 11.1057 54.6219 10.9602 54.4279C10.4429 53.1993 10.0711 52.1243 9.84476 51.2029C9.34363 52.4476 8.69701 53.4095 7.90491 54.0884C7.1128 54.7674 6.23986 55.1068 5.2861 55.1068C3.86354 55.1068 2.74813 54.4764 1.93985 53.2155C1.13158 51.9546 0.727445 50.2895 0.727445 48.2204C0.727445 46.4422 1.18816 44.7771 2.10959 43.2252C2.61072 42.3685 3.23309 41.5925 3.9767 40.8974C4.72031 40.2023 5.68216 39.588 6.86223 39.0546C8.04231 38.5211 9.3598 38.1412 10.8147 37.9149L11.2269 38.5453L10.4267 40.6307C9.97408 40.566 9.4972 40.5337 8.99607 40.5337C7.86449 40.5337 6.8784 40.7358 6.0378 41.1399C5.19719 41.5279 4.55866 42.0452 4.12219 42.6918C3.29775 43.9688 2.88553 45.3672 2.88553 46.8867C2.88553 48.8751 3.17651 50.3946 3.75847 51.4454C4.35659 52.48 5.06787 52.9973 5.89231 52.9973C7.55735 52.9973 8.75359 51.7283 9.48104 49.1903C9.41638 48.673 9.38404 48.0749 9.38404 47.3959C9.38404 46.7008 9.46487 45.8925 9.62653 44.9711L10.2085 44.5831L12.1968 45.4803C11.6795 46.4664 11.4209 47.8324 11.4209 49.5783C11.4209 51.3241 11.623 53.0215 12.0271 54.6704ZM22.2862 38.3756C22.2053 39.2324 22.1649 40.1376 22.1649 41.0914C22.1649 45.0196 22.8924 49.6833 24.3473 55.0826C24.2988 55.1149 24.2341 55.1392 24.1533 55.1553C23.733 55.1553 23.4177 55.0341 23.2076 54.7916C22.658 53.6277 22.0598 51.9142 21.4132 49.651C20.314 49.8288 19.2875 49.9177 18.3337 49.9177C17.3961 49.9177 16.7414 49.9016 16.3696 49.8692C15.6098 51.4535 14.7611 53.0942 13.8235 54.7916C13.5326 55.0341 13.2335 55.1553 12.9264 55.1553C12.6192 55.1553 12.4656 55.1311 12.4656 55.0826C13.0799 53.8702 13.8882 52.0677 14.8905 49.6753C14.6965 49.6429 14.3893 49.5783 13.969 49.4813C13.7266 49.2226 13.6053 48.867 13.6053 48.4143C13.6053 48.3012 13.6296 48.2446 13.6781 48.2446C13.7266 48.2446 13.8235 48.2689 13.969 48.3174C14.3085 48.4143 14.7611 48.4952 15.3269 48.5598C16.8788 44.761 17.9538 41.6814 18.5519 39.3213L21.2192 37.9149C21.6719 37.9149 22.0275 38.0685 22.2862 38.3756ZM16.9516 48.6326C18.4711 48.6002 19.8209 48.4143 21.001 48.0749C20.3382 45.5692 19.9179 43.4354 19.7401 41.6734C18.8187 44.2113 17.8892 46.5311 16.9516 48.6326ZM29.6854 54.7916C29.4591 55.0179 29.1116 55.1311 28.6428 55.1311C28.5296 55.1311 28.473 55.1068 28.473 55.0583C28.8287 52.9083 29.0065 50.6128 29.0065 48.1719C29.0065 45.7147 28.9095 43.395 28.7155 41.2126C28.4407 41.2288 27.9477 41.2369 27.2364 41.2369C26.5413 41.2369 25.7572 41.1641 24.8843 41.0187L24.4963 40.3882L25.4178 38.3029C26.4362 38.8525 27.8668 39.1273 29.7097 39.1273C31.5687 39.1273 33.3712 38.9091 35.117 38.4726C35.1817 38.4726 35.214 38.61 35.214 38.8848C35.214 39.1596 35.0928 39.4021 34.8503 39.6123C33.5571 40.1619 32.3204 40.5741 31.1403 40.8489C30.8494 47.5091 30.3644 52.1566 29.6854 54.7916ZM42.0043 55.7373C41.9396 55.9313 41.7618 56.1414 41.4708 56.3677C41.1798 56.5941 40.9697 56.7072 40.8404 56.7072C37.7366 54.1854 36.1847 51.0574 36.1847 47.3232C36.1847 42.8938 38.165 39.2243 42.1255 36.3145C42.2387 36.3145 42.3599 36.3873 42.4892 36.5327C42.6347 36.6782 42.7317 36.8561 42.7802 37.0662C40.0159 39.6203 38.6338 43.007 38.6338 47.2262C38.6338 50.8957 39.7573 53.7328 42.0043 55.7373ZM54.0164 38.5453L53.2162 40.6307C52.7636 40.566 52.2867 40.5337 51.7856 40.5337C50.654 40.5337 49.6679 40.7358 48.8273 41.1399C47.9867 41.5279 47.3482 42.0452 46.9117 42.6918C46.0873 43.9688 45.675 45.3672 45.675 46.8867C45.675 48.8751 45.9822 50.3946 46.5965 51.4454C47.2108 52.48 47.9463 52.9973 48.8031 52.9973C49.9023 52.9973 50.8237 52.5608 51.5673 51.6879C52.311 50.8149 52.9414 49.4732 53.4587 47.6627C53.491 47.5333 53.5476 47.4687 53.6284 47.4687C53.8548 47.4687 54.1053 47.5818 54.3801 47.8081C54.0568 50.0228 53.3132 51.7929 52.1493 53.1185C51.0016 54.4441 49.7083 55.1068 48.2696 55.1068C46.847 55.1068 45.6993 54.4764 44.8264 53.2155C43.9534 51.9546 43.517 50.2895 43.517 48.2204C43.517 46.4422 43.9777 44.7771 44.8991 43.2252C45.4002 42.3685 46.0226 41.5925 46.7662 40.8974C47.5098 40.2023 48.4717 39.588 49.6517 39.0546C50.8318 38.5211 52.1493 38.1412 53.6042 37.9149L54.0164 38.5453ZM64.5227 38.8606L63.7225 40.9459C62.9304 40.5256 62.0655 40.3155 61.1279 40.3155C60.1903 40.3155 59.4306 40.4852 58.8486 40.8247C58.2828 41.1641 57.9999 41.6976 57.9999 42.425C57.9999 43.3141 58.7435 44.3245 60.2308 45.4561C60.845 45.9249 61.4593 46.4098 62.0736 46.911C62.6879 47.3959 63.2133 47.9617 63.6498 48.6083C64.0862 49.2388 64.3045 49.8369 64.3045 50.4027C64.3045 50.9685 64.2075 51.4858 64.0135 51.9546C63.8357 52.4072 63.5285 52.876 63.092 53.361C62.6556 53.8459 61.9766 54.242 61.0552 54.5491C60.1338 54.8563 59.0992 55.0099 57.9514 55.0099C56.8037 55.0099 55.7853 54.8724 54.8962 54.5976C54.7183 54.3228 54.6294 54.0803 54.6294 53.8702C54.6294 53.66 54.6375 53.555 54.6537 53.555C54.686 53.555 54.8073 53.5873 55.0174 53.652C55.6802 53.8298 56.343 53.9187 57.0058 53.9187C58.3637 53.9187 59.4629 53.6439 60.3035 53.0942C61.1603 52.5446 61.5887 51.8414 61.5887 50.9847C61.5887 50.0147 60.8935 48.9721 59.5033 47.8566C58.9214 47.3878 58.3394 46.919 57.7574 46.4502C56.3672 45.3348 55.6721 44.2437 55.6721 43.1767C55.6721 42.4978 55.955 41.835 56.5208 41.1884C57.7655 39.7497 60.2954 38.7636 64.1105 38.2301L64.5227 38.8606ZM66.0376 37.2844C66.1023 37.0904 66.2801 36.8803 66.5711 36.654C66.8621 36.4277 67.0722 36.3145 67.2015 36.3145C70.3053 38.8363 71.8572 41.9643 71.8572 45.6986C71.8572 50.1279 69.8769 53.7974 65.9164 56.7072C65.8032 56.7072 65.6739 56.6345 65.5284 56.489C65.3991 56.3435 65.3102 56.1657 65.2617 55.9555C68.026 53.4014 69.4081 50.0147 69.4081 45.7955C69.4081 42.126 68.2846 39.289 66.0376 37.2844Z" fill="#0A3859"/>
<path d="M95.1448 25.2741V26.2067L91.5374 35.3464H95.1448V50.5015H115.697V55.5377H108.008V60.6204H125.998V42.9006L128.039 41.3618C133.26 37.4914 136.298 31.6159 136.298 25.2274C136.298 14.0826 127.089 5.03616 115.745 5.03616C104.353 5.03616 95.1448 14.0826 95.1448 25.2741Z" fill="#2F9BA6"/>
<path d="M115.697 47.4705H95.1448V50.5015H115.697V47.4705Z" fill="#0B2025"/>
<path d="M125.998 60.6204V42.9006L128.039 41.3618C133.26 37.4914 136.25 31.6159 136.25 25.2274C136.25 14.0826 127.042 5.03616 115.697 5.03616C107.154 5.03616 99.844 10.1656 96.7112 17.44C101.031 11.751 107.913 8.06719 115.697 8.06719C125.333 8.06719 133.165 15.7613 133.165 25.2274C133.165 30.6366 130.602 35.6728 126.14 38.937L122.865 41.3618V60.6204H125.998Z" fill="#C2E6F4"/>
<path d="M95.1449 25.2741V26.2067L91.5375 35.3464H95.1449V50.5015H115.697V55.5377H108.008V60.6204H102.834V55.5843H95.1449C92.2969 55.5843 90.0186 53.2994 90.0186 50.5481V40.4292H86.7434C85.3195 40.4292 84.56 39.3567 84.9872 38.051L90.0186 25.2741C89.9711 11.2847 101.505 0 115.697 0C129.89 0 141.424 11.2847 141.424 25.2741C141.424 33.5278 137.389 40.8489 131.124 45.4653V60.6204H125.998V42.9006L128.039 41.3618C133.26 37.4914 136.25 31.6159 136.25 25.2274C136.25 14.0826 127.042 5.03616 115.697 5.03616C104.353 5.03616 95.1449 14.0826 95.1449 25.2741Z" fill="#0A3859"/>
<path d="M126.14 14.0826L113.894 23.4554C112.897 24.4347 112.897 26.0202 113.894 27.046C114.891 28.0253 116.504 28.0253 117.549 27.046L127.089 14.9686L126.14 14.0826Z" fill="#263238"/>
<path d="M115.697 15.1551C115.887 15.1551 116.125 15.2017 116.315 15.2017L121.536 11.2381C119.732 10.492 117.786 10.1189 115.697 10.1189C107.154 10.1189 100.271 16.8805 100.271 25.2741C100.271 29.4709 101.98 33.248 104.78 35.9992L108.435 32.4086C106.584 30.59 105.445 28.0719 105.445 25.2741C105.397 19.6783 110.002 15.1551 115.697 15.1551Z" fill="#C2E6F4"/>
<path d="M125.903 24.6679C125.903 24.8544 125.95 25.0409 125.95 25.2741C125.95 28.0719 124.811 30.59 122.96 32.4086L126.615 35.9992C129.415 33.248 131.124 29.4709 131.124 25.2741C131.124 23.2689 130.697 21.3104 129.985 19.5384L125.903 24.6679Z" fill="#1A535B"/>
</svg>
