<svg xmlns="http://www.w3.org/2000/svg" xmlns:xlink="http://www.w3.org/1999/xlink" viewBox="0 0 203.94 225.62"><defs><style>.cls-1{font-size:30.4px;fill:#0b2025;font-family:MyriadPro-Semibold, MyriadPro Semibold;font-weight:600;}.cls-2{letter-spacing:-0.01em;}.cls-3{letter-spacing:-0.02em;}.cls-4{letter-spacing:-0.01em;}.cls-5{letter-spacing:0em;}.cls-6{letter-spacing:0em;}.cls-7{letter-spacing:0em;}.cls-8{font-size:18px;}.cls-9{letter-spacing:-0.07em;}.cls-10{letter-spacing:0em;}.cls-11{letter-spacing:0.01em;}.cls-12{letter-spacing:0em;}.cls-13{letter-spacing:-0.01em;}.cls-14{fill:none;stroke:#0b2025;stroke-miterlimit:10;}.cls-15{fill:url(#linear-gradient);}.cls-16{fill:url(#linear-gradient-2);}.cls-17{fill:url(#linear-gradient-3);}.cls-18{fill:url(#linear-gradient-4);}.cls-19{fill:url(#linear-gradient-5);}</style><linearGradient id="linear-gradient" x1="100.06" y1="144.96" x2="100.06" y2="51.7" gradientUnits="userSpaceOnUse"><stop offset="0" stop-color="#0b2025"/><stop offset="0.06" stop-color="#0b2530"/><stop offset="0.19" stop-color="#0a2e43"/><stop offset="0.35" stop-color="#0a344f"/><stop offset="0.56" stop-color="#0a3757"/><stop offset="1" stop-color="#0a3859"/></linearGradient><linearGradient id="linear-gradient-2" x1="100" x2="100" y2="27.06" gradientUnits="userSpaceOnUse"><stop offset="0" stop-color="#0a3859"/><stop offset="1" stop-color="#2f9ba6"/></linearGradient><linearGradient id="linear-gradient-3" x1="100" y1="14.6" x2="100" y2="106.79" gradientUnits="userSpaceOnUse"><stop offset="0" stop-color="#0a3859"/><stop offset="0.06" stop-color="#0f4664"/><stop offset="0.22" stop-color="#1b657c"/><stop offset="0.39" stop-color="#247d8e"/><stop offset="0.57" stop-color="#2a8e9c"/><stop offset="0.76" stop-color="#2e98a4"/><stop offset="1" stop-color="#2f9ba6"/></linearGradient><linearGradient id="linear-gradient-4" x1="30.42" y1="89.72" x2="162.82" y2="89.72" gradientUnits="userSpaceOnUse"><stop offset="0" stop-color="#0a3859"/><stop offset="0.44" stop-color="#1d6b81"/><stop offset="0.81" stop-color="#2a8e9c"/><stop offset="1" stop-color="#2f9ba6"/></linearGradient><linearGradient id="linear-gradient-5" x1="37.09" y1="89.72" x2="169.49" y2="89.72" gradientUnits="userSpaceOnUse"><stop offset="0" stop-color="#2d96a2"/><stop offset="0.39" stop-color="#1d6c81"/><stop offset="0.79" stop-color="#0f4664"/><stop offset="1" stop-color="#0a3859"/></linearGradient></defs><title>forLightBlueBackgroundAsset 5</title><g id="Layer_2" data-name="Layer 2"><g id="Layer_1-2" data-name="Layer 1"><text class="cls-1" transform="translate(0 199.11)">N<tspan class="cls-2" x="20" y="0">T</tspan><tspan x="34.93" y="0">S </tspan><tspan class="cls-3" x="56.37" y="0">P</tspan><tspan class="cls-4" x="72.05" y="0">r</tspan><tspan x="81.69" y="0">epa</tspan><tspan class="cls-5" x="128.88" y="0">r</tspan><tspan class="cls-6" x="138.67" y="0">a</tspan><tspan class="cls-7" x="153.2" y="0">tion</tspan><tspan class="cls-8"><tspan class="cls-9" x="59.52" y="22">T</tspan><tspan class="cls-10" x="67.19" y="22">est</tspan><tspan class="cls-11" x="89.29" y="22">M</tspan><tspan x="103.87" y="22">e</tspan><tspan class="cls-12" x="112.89" y="22">n</tspan><tspan class="cls-13" x="122.8" y="22">t</tspan><tspan x="128.65" y="22">or</tspan></tspan></text><line class="cls-14" x1="144.4" y1="215.41" x2="184" y2="215.41"/><line class="cls-14" x1="19.72" y1="215.41" x2="59.33" y2="215.41"/><path class="cls-15" d="M30.42,51.7S18.34,77.31,82.61,119.84c0,0-22.23,6.28-38.66,6.28,0,0,5.8,17.88,19.81,17.88S100,131,100,131s24.16,14,38.18,14,12.75-17.88,12.75-17.88a155.58,155.58,0,0,1-33.05-6.76s61.66-40.59,51.61-68.62l-2.9,1.94s-8.6,32.85-66.11,59c0,0-56.5-20.38-67.13-59Z"/><path class="cls-16" d="M113.53,13.53A13.53,13.53,0,1,1,100,0,13.53,13.53,0,0,1,113.53,13.53Z"/><path class="cls-17" d="M43,15.46s26.1-4.35,57.5,17.88c0,0,39.14-26.57,56.54-16.43,0,0-54.12,8.7-43,80.7l-13,9.18L87.44,98.57S102.42,35.27,43,15.46Z"/><path class="cls-18" d="M30.42,51.7s.48-12.56,23.19-10.14,105.83,35.75,109.21,75.86c0,0-5.8,16-14,20.78,0,0,3.86-9.18-8.7-26.1S91.79,58.47,46.37,47.35c0,0-12.08-1-13,6.29Z"/><path class="cls-19" d="M169.49,51.7s-.49-12.56-23.2-10.14S40.47,77.31,37.09,117.42c0,0,5.8,16,14,20.78,0,0-3.87-9.18,8.7-26.1s48.32-53.63,93.74-64.75c0,0,12.08-1,13.05,6.29Z"/></g></g></svg>