<svg width="91" height="50" viewBox="0 0 91 50" fill="none" xmlns="http://www.w3.org/2000/svg">
<path d="M36.6055 37.2587H43.8613V38.6607H43.5577C43.5577 38.1404 43.4614 37.8368 43.2687 37.7501H40.8982V45.1215C40.985 45.3142 41.2885 45.4106 41.8088 45.4106V45.7141H38.6579V45.4106C39.1782 45.4106 39.4818 45.3142 39.5685 45.1215V37.7501H37.1981C37.0054 37.8368 36.909 38.1404 36.909 38.6607H36.6055V37.2587ZM44.7297 45.7141V45.4106C45.2501 45.4106 45.5536 45.3142 45.6403 45.1215V37.8513C45.5536 37.6586 45.2501 37.5622 44.7297 37.5622V37.2587H47.9963C49.1911 37.2587 50.0969 37.4755 50.7136 37.9091C51.3303 38.3427 51.6386 38.839 51.6386 39.3978C51.6386 39.9278 51.4796 40.3951 51.1616 40.7998C50.8437 41.1949 50.3715 41.484 49.7452 41.6671L51.6675 45.1071C51.7639 45.3094 52.0819 45.4106 52.6215 45.4106V45.7141H52C51.3255 45.7141 50.887 45.6756 50.6847 45.5985C50.4823 45.5214 50.28 45.3094 50.0776 44.9625L48.3287 41.8694H46.9701V45.1215C47.0568 45.3142 47.3603 45.4106 47.8806 45.4106V45.7141H44.7297ZM46.9701 37.7501V41.378H48.1697C48.9406 41.378 49.4706 41.2286 49.7596 40.9299C50.0487 40.6312 50.1932 40.1253 50.1932 39.4123C50.1932 38.8823 50.0294 38.4728 49.7018 38.1837C49.3838 37.8946 48.8153 37.7501 47.9963 37.7501H46.9701ZM57.3776 45.7141V45.4106C57.8208 45.4106 58.1002 45.3528 58.2159 45.2372L57.4065 43.0257H54.6313L53.8797 45.1504C53.9761 45.3239 54.2748 45.4106 54.7759 45.4106V45.7141H52.4055V45.4106C52.9451 45.4106 53.2486 45.3094 53.316 45.1071L56.1201 37.2587H56.8139L59.6179 45.1071C59.6853 45.3094 59.9937 45.4106 60.5429 45.4106V45.7141H57.3776ZM56.0044 39.181L54.8048 42.5488H57.233L56.0044 39.181ZM61.0184 45.7141V45.4106C61.5388 45.4106 61.8423 45.3142 61.929 45.1215V37.8513C61.8423 37.6586 61.5388 37.5622 61.0184 37.5622V37.2587H64.1693V37.5622C63.649 37.5622 63.3455 37.6586 63.2588 37.8513V45.1215C63.3455 45.3142 63.649 45.4106 64.1693 45.4106V45.7141H61.0184ZM65.38 45.7141V45.4106C65.9003 45.4106 66.2038 45.3142 66.2906 45.1215V37.8513C66.2038 37.6586 65.9003 37.5622 65.38 37.5622V37.2587H67.3168L72.101 43.1703V37.8513C72.0142 37.6586 71.7107 37.5622 71.1904 37.5622V37.2587H73.503V37.5622C72.9826 37.5622 72.6791 37.6586 72.5924 37.8513V45.7141H72.4623L66.782 38.5306V45.1215C66.8687 45.3142 67.1722 45.4106 67.6926 45.4106V45.7141H65.38ZM74.5829 45.7141V45.4106C75.1033 45.4106 75.4068 45.3142 75.4935 45.1215V37.8513C75.4068 37.6586 75.1033 37.5622 74.5829 37.5622V37.2587H80.4078V38.6607H80.1043C80.1043 38.1404 80.0079 37.8368 79.8152 37.7501H76.8233V41.0745H78.8468C79.0395 40.9877 79.1359 40.6842 79.1359 40.1639H79.4394V42.4765H79.1359C79.1359 41.9561 79.0395 41.6526 78.8468 41.5659H76.8233V45.2227H80.1187C80.3596 45.1167 80.5764 44.8132 80.7691 44.3121H81.0582L80.7113 45.7141H74.5829ZM81.9086 45.7141V45.4106C82.429 45.4106 82.7325 45.3142 82.8192 45.1215V37.8513C82.7325 37.6586 82.429 37.5622 81.9086 37.5622V37.2587H85.1752C86.37 37.2587 87.2758 37.4755 87.8925 37.9091C88.5092 38.3427 88.8175 38.839 88.8175 39.3978C88.8175 39.9278 88.6585 40.3951 88.3405 40.7998C88.0226 41.1949 87.5504 41.484 86.9241 41.6671L88.8464 45.1071C88.9428 45.3094 89.2608 45.4106 89.8004 45.4106V45.7141H89.1789C88.5044 45.7141 88.0659 45.6756 87.8636 45.5985C87.6612 45.5214 87.4589 45.3094 87.2565 44.9625L85.5076 41.8694H84.149V45.1215C84.2357 45.3142 84.5392 45.4106 85.0595 45.4106V45.7141H81.9086ZM84.149 37.7501V41.378H85.3486C86.1195 41.378 86.6495 41.2286 86.9385 40.9299C87.2276 40.6312 87.3721 40.1253 87.3721 39.4123C87.3721 38.8823 87.2083 38.4728 86.8807 38.1837C86.5627 37.8946 85.9942 37.7501 85.1752 37.7501H84.149Z" fill="#0A3859"/>
<path d="M7.35981 32.6746C7.35981 32.7131 7.31645 32.7372 7.22973 32.7469C6.9792 32.7179 6.81057 32.6457 6.72385 32.53C6.4155 31.7977 6.19388 31.1569 6.05898 30.6077C5.76026 31.3497 5.37483 31.923 4.90267 32.3277C4.43052 32.7324 3.91018 32.9347 3.34167 32.9347C2.49372 32.9347 1.82884 32.559 1.34705 31.8074C0.865259 31.0558 0.624363 30.0633 0.624363 28.8299C0.624363 27.7699 0.898984 26.7774 1.44823 25.8524C1.74694 25.3417 2.11792 24.8792 2.56117 24.4648C3.00441 24.0505 3.57775 23.6843 4.28116 23.3664C4.98458 23.0484 5.7699 22.8219 6.63713 22.687L6.88284 23.0628L6.40587 24.3059C6.13606 24.2673 5.8518 24.248 5.55309 24.248C4.87859 24.248 4.2908 24.3685 3.78974 24.6094C3.28867 24.8406 2.90806 25.149 2.64789 25.5344C2.15646 26.2957 1.91075 27.1292 1.91075 28.0349C1.91075 29.2201 2.08419 30.1259 2.43108 30.7522C2.78761 31.3689 3.21159 31.6773 3.70301 31.6773C4.6955 31.6773 5.40856 30.9209 5.84217 29.408C5.80363 29.0997 5.78435 28.7432 5.78435 28.3385C5.78435 27.9241 5.83253 27.4423 5.92889 26.8931L6.27578 26.6618L7.46099 27.1966C7.15264 27.7844 6.99847 28.5986 6.99847 29.6393C6.99847 30.68 7.11892 31.6917 7.35981 32.6746ZM13.475 22.9617C13.4268 23.4724 13.4027 24.012 13.4027 24.5805C13.4027 26.922 13.8363 29.7019 14.7036 32.9203C14.6747 32.9396 14.6361 32.954 14.5879 32.9637C14.3374 32.9637 14.1495 32.8914 14.0242 32.7469C13.6966 32.0531 13.3401 31.0317 12.9547 29.6827C12.2994 29.7886 11.6875 29.8416 11.119 29.8416C10.5602 29.8416 10.1699 29.832 9.94828 29.8127C9.49539 30.757 8.98951 31.7351 8.43063 32.7469C8.25719 32.8914 8.07892 32.9637 7.89584 32.9637C7.71276 32.9637 7.62122 32.9492 7.62122 32.9203C7.98738 32.1976 8.46918 31.1232 9.0666 29.6971C8.95097 29.6778 8.76789 29.6393 8.51736 29.5815C8.37282 29.4273 8.30055 29.2153 8.30055 28.9455C8.30055 28.8781 8.315 28.8443 8.34391 28.8443C8.37282 28.8443 8.43063 28.8588 8.51736 28.8877C8.71971 28.9455 8.98951 28.9937 9.32677 29.0322C10.2518 26.7678 10.8926 24.9322 11.2491 23.5254L12.839 22.687C13.1088 22.687 13.3208 22.7786 13.475 22.9617ZM10.2952 29.0756C11.2009 29.0563 12.0055 28.9455 12.7089 28.7432C12.3139 27.2496 12.0633 25.9777 11.9573 24.9274C11.4081 26.4402 10.854 27.8229 10.2952 29.0756ZM17.8855 32.7469C17.7506 32.8818 17.5435 32.9492 17.264 32.9492C17.1966 32.9492 17.1628 32.9347 17.1628 32.9058C17.3748 31.6243 17.4808 30.256 17.4808 28.801C17.4808 27.3363 17.423 25.9536 17.3074 24.6527C17.1436 24.6624 16.8497 24.6672 16.4257 24.6672C16.0114 24.6672 15.544 24.6238 15.0237 24.5371L14.7924 24.1613L15.3417 22.9183C15.9487 23.2459 16.8015 23.4097 17.9 23.4097C19.0081 23.4097 20.0825 23.2796 21.1232 23.0195C21.1617 23.0195 21.181 23.1014 21.181 23.2652C21.181 23.429 21.1087 23.5735 20.9642 23.6988C20.1933 24.0264 19.4562 24.2721 18.7528 24.4359C18.5793 28.4059 18.2902 31.1762 17.8855 32.7469ZM25.2285 33.3105C25.19 33.4262 25.084 33.5514 24.9105 33.6863C24.7371 33.8212 24.6118 33.8887 24.5347 33.8887C22.6846 32.3855 21.7596 30.521 21.7596 28.2951C21.7596 25.6549 22.94 23.4675 25.3008 21.7331C25.3682 21.7331 25.4405 21.7764 25.5176 21.8632C25.6043 21.9499 25.6621 22.0559 25.691 22.1812C24.0433 23.7036 23.2194 25.7223 23.2194 28.2373C23.2194 30.4246 23.8891 32.1157 25.2285 33.3105ZM32.3886 23.0628L31.9117 24.3059C31.6419 24.2673 31.3576 24.248 31.0589 24.248C30.3844 24.248 29.7966 24.3685 29.2955 24.6094C28.7945 24.8406 28.4139 25.149 28.1537 25.5344C27.6623 26.2957 27.4165 27.1292 27.4165 28.0349C27.4165 29.2201 27.5996 30.1259 27.9658 30.7522C28.3319 31.3689 28.7704 31.6773 29.2811 31.6773C29.9363 31.6773 30.4856 31.4171 30.9288 30.8968C31.3721 30.3764 31.7479 29.5767 32.0562 28.4974C32.0755 28.4204 32.1092 28.3818 32.1574 28.3818C32.2923 28.3818 32.4416 28.4493 32.6054 28.5842C32.4127 29.9043 31.9695 30.9594 31.2757 31.7495C30.5916 32.5397 29.8207 32.9347 28.9631 32.9347C28.1151 32.9347 27.431 32.559 26.9107 31.8074C26.3903 31.0558 26.1302 30.0633 26.1302 28.8299C26.1302 27.7699 26.4048 26.7774 26.954 25.8524C27.2527 25.3417 27.6237 24.8792 28.067 24.4648C28.5102 24.0505 29.0835 23.6843 29.787 23.3664C30.4904 23.0484 31.2757 22.8219 32.1429 22.687L32.3886 23.0628ZM38.6512 23.2507L38.1742 24.4938C37.702 24.2432 37.1865 24.118 36.6277 24.118C36.0688 24.118 35.6159 24.2191 35.269 24.4215C34.9317 24.6238 34.7631 24.9418 34.7631 25.3754C34.7631 25.9054 35.2064 26.5076 36.0929 27.1822C36.459 27.4616 36.8252 27.7507 37.1913 28.0494C37.5575 28.3385 37.8707 28.6757 38.1308 29.0611C38.391 29.4369 38.5211 29.7935 38.5211 30.1307C38.5211 30.468 38.4633 30.7763 38.3476 31.0558C38.2417 31.3256 38.0586 31.605 37.7984 31.8941C37.5382 32.1832 37.1335 32.4192 36.5843 32.6023C36.035 32.7854 35.4184 32.8769 34.7342 32.8769C34.0501 32.8769 33.443 32.795 32.913 32.6312C32.807 32.4674 32.754 32.3229 32.754 32.1976C32.754 32.0723 32.7589 32.0097 32.7685 32.0097C32.7878 32.0097 32.86 32.029 32.9853 32.0675C33.3804 32.1735 33.7754 32.2265 34.1705 32.2265C34.9799 32.2265 35.6352 32.0627 36.1362 31.7351C36.6469 31.4075 36.9023 30.9883 36.9023 30.4776C36.9023 29.8995 36.4879 29.2779 35.6592 28.6131C35.3124 28.3336 34.9655 28.0542 34.6186 27.7748C33.7899 27.1099 33.3756 26.4595 33.3756 25.8235C33.3756 25.4188 33.5442 25.0237 33.8814 24.6383C34.6234 23.7807 36.1314 23.1929 38.4055 22.8749L38.6512 23.2507ZM39.5542 22.3112C39.5927 22.1956 39.6987 22.0703 39.8722 21.9354C40.0456 21.8005 40.1709 21.7331 40.248 21.7331C42.0981 23.2363 43.0231 25.1008 43.0231 27.3267C43.0231 29.9669 41.8427 32.1542 39.4819 33.8887C39.4145 33.8887 39.3374 33.8453 39.2507 33.7586C39.1736 33.6719 39.1206 33.5659 39.0917 33.4406C40.7394 31.9182 41.5633 29.8995 41.5633 27.3845C41.5633 25.1972 40.8936 23.5061 39.5542 22.3112Z" fill="#0A3859"/>
<path d="M56.936 15.2682V15.8238L54.7845 21.2687H56.936V30.2972H69.1937V33.2975H64.6077V36.3255H75.3368V25.7691L76.5541 24.8523C79.668 22.5466 81.4798 19.0463 81.4798 15.2404C81.4798 8.60092 75.9879 3.21156 69.222 3.21156C62.4279 3.21156 56.936 8.60092 56.936 15.2682Z" fill="#2F9BA6"/>
<path d="M69.1937 28.4915H56.936V30.2972H69.1937V28.4915Z" fill="#0B2025"/>
<path d="M75.3368 36.3255V25.7691L76.5541 24.8523C79.6681 22.5466 81.4515 19.0463 81.4515 15.2404C81.4515 8.60092 75.9596 3.21156 69.1938 3.21156C64.0981 3.21156 59.7386 6.26738 57.8702 10.6011C60.4463 7.21191 64.5511 5.01728 69.1938 5.01728C74.9405 5.01728 79.6115 9.60101 79.6115 15.2404C79.6115 18.4629 78.0828 21.4631 75.4217 23.4078L73.4684 24.8523V36.3255H75.3368Z" fill="#C2E6F4"/>
<path d="M56.936 15.2682V15.8238L54.7845 21.2687H56.936V30.2973H69.1938V33.2975H64.6077V36.3256H61.522V33.3253H56.936C55.2374 33.3253 53.8786 31.9641 53.8786 30.325V24.2967H51.9253C51.076 24.2967 50.6231 23.6578 50.8779 22.8799L53.8786 15.2682C53.8503 6.93412 60.7294 0.211311 69.1938 0.211311C77.6581 0.211311 84.5372 6.93412 84.5372 15.2682C84.5372 20.1853 82.1309 24.5468 78.3942 27.297V36.3256H75.3368V25.7691L76.5541 24.8523C79.6681 22.5466 81.4515 19.0463 81.4515 15.2404C81.4515 8.60093 75.9596 3.21157 69.1938 3.21157C62.4279 3.21157 56.936 8.60093 56.936 15.2682Z" fill="#0A3859"/>
<path d="M75.4217 8.60094L68.118 14.1848C67.5235 14.7681 67.5235 15.7127 68.118 16.3238C68.7125 16.9072 69.675 16.9072 70.2978 16.3238L75.9879 9.12876L75.4217 8.60094Z" fill="#263238"/>
<path d="M69.1937 9.23987C69.307 9.23987 69.4485 9.26765 69.5617 9.26765L72.6757 6.90633C71.6 6.46185 70.4393 6.23961 69.1937 6.23961C64.0981 6.23961 59.9933 10.2677 59.9933 15.2682C59.9933 17.7684 61.0124 20.0186 62.6827 21.6576L64.8625 19.5185C63.7584 18.4351 63.079 16.935 63.079 15.2682C63.0507 11.9345 65.7966 9.23987 69.1937 9.23987Z" fill="#C2E6F4"/>
<path d="M75.2802 14.907C75.2802 15.0181 75.3085 15.1293 75.3085 15.2682C75.3085 16.935 74.6291 18.4351 73.525 19.5185L75.7048 21.6576C77.375 20.0186 78.3942 17.7684 78.3942 15.2682C78.3942 14.0736 78.1394 12.9068 77.7147 11.8512L75.2802 14.907Z" fill="#1A535B"/>
</svg>
